<?xml version="1.0" standalone="no"?>
<!DOCTYPE svg PUBLIC "-//W3C//DTD SVG 20010904//EN"
 "http://www.w3.org/TR/2001/REC-SVG-20010904/DTD/svg10.dtd">
<svg version="1.0" xmlns="http://www.w3.org/2000/svg"
 width="1220.000000pt" height="1220.000000pt" viewBox="0 0 1220.000000 1220.000000"
 preserveAspectRatio="xMidYMid meet">
<metadata>
Created by potrace 1.14, written by Peter Selinger 2001-2017
</metadata>
<g transform="translate(0.000000,1220.000000) scale(0.100000,-0.100000)"
fill="#000000" stroke="none">
<path d="M8798 9376 c-1 -2 -37 -6 -78 -10 -41 -3 -86 -8 -100 -10 -14 -3 -47
-7 -73 -11 -26 -3 -71 -10 -100 -16 -49 -10 -85 -16 -132 -24 -11 -2 -20 -4
-20 -5 0 -1 -11 -4 -25 -7 -39 -7 -55 -11 -55 -13 0 -1 -8 -3 -17 -5 -54 -10
-249 -73 -348 -112 -137 -54 -364 -161 -368 -174 -2 -5 -12 -9 -23 -9 -10 0
-19 -3 -19 -8 0 -4 -9 -12 -19 -17 -80 -41 -111 -60 -111 -67 0 -4 -5 -8 -11
-8 -9 0 -61 -33 -144 -92 -169 -120 -422 -354 -557 -516 -40 -48 -75 -89 -78
-92 -3 -3 -17 -21 -30 -40 -13 -19 -27 -37 -30 -40 -7 -6 -146 -212 -169 -251
-8 -13 -26 -44 -40 -69 -14 -25 -27 -47 -30 -50 -6 -5 -23 -35 -63 -110 -10
-19 -23 -42 -28 -50 -32 -49 -130 -223 -130 -231 0 -5 -4 -9 -9 -9 -5 0 -12
-9 -16 -19 -5 -16 -141 -256 -190 -336 -7 -11 -13 -24 -15 -30 -1 -5 -10 -21
-20 -35 -17 -24 -179 -301 -194 -332 -3 -7 -17 -31 -31 -53 -14 -22 -30 -51
-36 -65 -6 -13 -13 -27 -17 -30 -4 -3 -18 -25 -31 -50 -14 -25 -29 -48 -34
-51 -5 -3 -9 -10 -9 -15 0 -5 -17 -38 -38 -74 -21 -36 -47 -81 -58 -101 -49
-88 -117 -204 -122 -209 -3 -3 -21 -34 -39 -70 -19 -36 -42 -76 -51 -90 -26
-37 -154 -261 -163 -284 -4 -11 -11 -23 -15 -26 -4 -3 -14 -18 -22 -35 -8 -16
-17 -32 -20 -35 -3 -3 -41 -68 -85 -145 -44 -77 -84 -147 -90 -157 -63 -107
-79 -133 -89 -144 -6 -7 -27 -32 -46 -55 -67 -83 -250 -256 -299 -283 -9 -5
-18 -12 -21 -15 -18 -21 -134 -92 -245 -151 -48 -26 -250 -106 -290 -115 -5
-2 -37 -10 -70 -18 -148 -38 -241 -50 -415 -51 -160 0 -255 8 -355 31 -16 3
-37 7 -45 8 -38 4 -213 61 -292 95 -258 111 -509 296 -670 495 -27 33 -54 67
-61 75 -33 37 -129 193 -170 276 -50 99 -101 232 -126 326 -1 4 -3 13 -5 20
-8 29 -26 116 -31 153 -4 22 -9 54 -11 70 -9 53 -11 323 -3 382 4 32 10 76 13
98 12 107 65 287 124 425 31 73 135 265 152 280 3 3 21 28 40 55 19 28 42 59
52 70 9 11 26 31 38 45 109 127 251 250 397 344 64 40 270 149 283 149 7 0 32
8 55 18 27 11 145 48 174 54 12 2 30 6 39 9 9 3 32 8 50 11 72 12 93 15 125
21 50 9 325 12 392 4 169 -21 237 -34 360 -71 55 -16 109 -34 120 -38 11 -5
38 -17 60 -26 183 -79 335 -175 475 -302 92 -83 108 -95 149 -114 35 -16 57
-20 102 -16 98 8 177 68 265 198 27 41 51 76 54 79 3 3 19 25 35 50 17 25 54
79 83 120 29 41 57 82 62 90 36 54 311 445 346 492 l43 56 -53 54 c-67 68
-181 169 -255 226 -86 66 -162 122 -166 122 -3 0 -15 9 -27 20 -12 11 -34 26
-50 32 -15 7 -28 16 -28 20 0 5 -7 8 -15 8 -8 0 -15 5 -15 10 0 6 -6 10 -12
11 -7 0 -33 13 -58 29 -111 70 -492 250 -530 250 -4 0 -25 8 -46 17 -22 9 -43
17 -49 19 -5 1 -44 12 -85 24 -41 12 -82 24 -90 25 -8 2 -15 4 -15 5 0 2 -12
4 -55 13 -14 3 -32 8 -40 11 -8 3 -28 7 -45 10 -16 2 -66 11 -110 20 -94 17
-153 26 -215 31 -25 3 -74 7 -110 10 -149 14 -451 8 -615 -11 -108 -13 -176
-24 -200 -31 -11 -3 -31 -7 -45 -8 -35 -3 -232 -53 -305 -77 -33 -11 -67 -21
-75 -23 -34 -7 -220 -79 -297 -115 -46 -21 -83 -36 -83 -32 0 4 -4 3 -8 -3 -4
-5 -36 -25 -72 -43 -36 -18 -92 -48 -125 -67 -33 -19 -67 -38 -75 -42 -17 -8
-253 -167 -278 -188 -9 -8 -60 -49 -112 -91 -210 -171 -460 -445 -619 -679
-77 -113 -171 -269 -171 -284 0 -5 -3 -11 -8 -13 -9 -4 -127 -252 -147 -309
-8 -21 -21 -54 -29 -72 -15 -34 -50 -139 -48 -147 0 -3 -4 -11 -10 -17 -6 -7
-7 -13 -3 -13 4 0 2 -7 -5 -15 -7 -8 -10 -15 -7 -15 3 0 -3 -26 -14 -57 -11
-32 -19 -59 -19 -61 1 -1 -8 -42 -19 -90 -11 -48 -23 -105 -26 -127 -4 -22 -8
-47 -10 -55 -7 -22 -20 -121 -32 -235 -10 -95 -10 -502 0 -595 13 -118 20
-174 31 -227 8 -36 18 -113 16 -115 -1 -2 3 -16 9 -31 6 -15 13 -41 16 -58 3
-16 12 -55 21 -87 9 -31 19 -70 24 -87 17 -64 80 -242 111 -312 11 -23 19 -44
19 -47 0 -13 117 -247 152 -305 21 -34 38 -66 38 -70 1 -9 95 -152 162 -244
56 -77 81 -109 101 -129 9 -10 17 -20 17 -23 0 -11 128 -152 236 -259 94 -93
181 -171 262 -234 31 -24 68 -53 82 -63 39 -31 210 -149 216 -149 2 0 23 -11
45 -26 94 -59 294 -164 313 -164 8 0 16 -4 18 -8 2 -5 41 -23 88 -41 47 -18
99 -39 117 -47 46 -21 245 -84 264 -84 9 0 19 -3 23 -8 4 -4 11 -7 14 -8 6 0
118 -25 132 -29 3 -1 23 -5 45 -9 22 -4 60 -11 85 -16 163 -33 316 -45 555
-45 206 1 375 11 480 30 17 3 46 7 65 9 19 3 35 5 35 6 0 1 14 4 30 6 171 27
520 131 672 200 17 8 34 14 38 14 8 0 132 58 220 102 131 66 363 205 392 234
8 8 17 14 21 14 4 0 23 14 42 30 19 16 40 30 47 30 6 0 13 3 15 8 2 4 26 25
53 47 28 22 52 42 55 45 3 3 41 37 84 75 112 99 246 235 326 332 60 72 101
126 130 168 19 28 37 52 40 55 25 23 245 404 433 750 16 30 38 69 47 85 10 17
29 50 42 75 14 25 34 61 45 80 11 19 33 60 50 90 60 109 131 236 150 270 11
20 39 70 61 112 23 42 55 99 72 128 16 28 30 53 30 56 0 2 10 21 23 42 13 20
41 69 62 107 21 39 61 111 88 160 28 50 66 119 85 155 19 36 52 94 72 130 49
85 79 140 158 285 36 66 68 122 71 125 3 3 15 23 26 45 11 22 31 58 44 80 14
22 36 60 49 85 27 51 131 207 165 246 141 167 274 288 412 375 33 21 65 43 72
48 20 18 256 129 318 151 57 20 71 24 113 34 9 2 29 9 45 15 15 6 27 8 27 6 0
-2 11 0 24 5 13 5 41 11 63 15 21 3 48 7 58 9 97 19 334 25 455 13 125 -12
257 -37 353 -67 34 -11 64 -19 67 -19 28 1 320 -138 380 -181 16 -11 31 -20
34 -20 4 0 12 -5 19 -10 7 -6 41 -32 77 -58 36 -26 77 -58 91 -72 14 -14 50
-48 80 -75 48 -45 126 -131 194 -217 20 -25 91 -143 104 -173 20 -46 23 -117
7 -156 -27 -64 -118 -118 -227 -134 -24 -4 -46 -8 -50 -10 -25 -16 -341 -23
-1309 -30 -791 -5 -1026 -9 -1098 -19 -95 -14 -117 -18 -127 -24 -5 -4 -12 -7
-15 -8 -59 -11 -170 -78 -170 -101 0 -7 -4 -13 -9 -13 -5 0 -19 -21 -32 -47
-12 -27 -25 -50 -28 -53 -4 -3 -29 -50 -58 -105 -28 -55 -72 -139 -97 -187
-24 -49 -42 -88 -38 -88 4 0 3 -4 -3 -8 -5 -4 -41 -68 -78 -142 -65 -129 -111
-218 -207 -397 -24 -46 -41 -86 -37 -89 3 -4 137 -8 297 -9 159 -1 293 -4 296
-8 3 -3 16 -2 28 2 11 4 32 5 46 1 14 -4 37 -3 52 1 14 4 29 5 32 2 2 -3 177
-7 388 -9 419 -4 1086 -11 1723 -19 1333 -17 1276 -19 1421 37 32 12 62 21 67
20 4 -1 7 2 7 7 0 5 13 14 29 19 27 10 137 83 190 126 76 63 172 169 236 260
46 67 150 256 140 256 -3 0 0 10 7 23 7 12 13 24 13 27 1 3 9 30 19 60 19 59
19 59 40 170 14 75 15 322 2 385 -4 17 -11 53 -16 80 -18 91 -23 111 -39 163
-5 18 -10 33 -10 35 0 1 -2 9 -4 17 -49 160 -66 211 -99 295 -41 102 -134 296
-190 395 -32 58 -186 291 -198 300 -3 3 -19 23 -36 45 -16 22 -33 45 -39 51
-5 6 -32 37 -60 69 -95 111 -277 286 -391 375 -22 17 -48 39 -59 48 -11 9 -89
63 -174 119 -179 120 -425 246 -631 323 -134 51 -139 52 -147 52 -4 0 -19 5
-33 10 -25 10 -188 55 -225 63 -11 3 -40 9 -65 15 -25 5 -56 12 -70 14 -14 3
-36 7 -50 10 -14 3 -46 8 -71 11 -25 3 -56 8 -69 10 -13 2 -46 7 -74 11 -28 3
-67 8 -86 10 -41 5 -547 14 -552 10z"/>
<path d="M7175 5099 c-53 -26 -95 -68 -125 -126 -13 -26 -29 -51 -35 -55 -5
-4 -7 -8 -2 -8 4 0 -3 -17 -16 -37 -12 -21 -29 -51 -37 -68 -8 -16 -18 -32
-21 -35 -3 -3 -13 -18 -21 -35 -39 -75 -90 -171 -97 -180 -5 -5 -28 -48 -53
-95 -25 -47 -54 -101 -65 -120 -23 -41 -64 -116 -122 -221 l-42 -77 43 -48
c157 -174 311 -314 543 -492 6 -4 26 -19 45 -32 19 -13 40 -29 46 -35 6 -5 27
-19 47 -30 20 -11 37 -23 37 -27 0 -5 4 -8 10 -8 5 0 36 -17 67 -37 88 -56
277 -156 393 -207 36 -16 84 -37 107 -47 23 -11 45 -19 48 -19 4 0 21 -6 38
-14 32 -14 68 -28 77 -31 3 0 41 -13 85 -27 94 -31 262 -79 290 -83 11 -1 49
-9 85 -18 36 -8 87 -18 114 -22 27 -3 53 -8 57 -11 5 -2 34 -7 67 -10 32 -2
69 -7 83 -9 133 -27 681 -27 829 0 14 2 48 7 75 10 28 4 59 8 70 9 60 9 104
17 125 22 14 3 44 10 66 14 61 13 205 49 234 59 43 15 145 44 150 44 3 -1 10
2 15 7 6 4 28 13 50 20 145 45 454 190 621 292 111 68 258 168 262 180 2 4 8
8 14 8 10 0 159 118 248 196 71 63 261 254 315 319 28 32 64 75 80 94 17 20
44 54 60 76 16 22 33 45 38 50 13 16 91 128 110 158 12 18 13 27 6 27 -7 0
-20 6 -28 14 -17 14 -191 104 -251 130 -107 45 -217 81 -315 102 -11 2 -31 6
-45 9 -14 4 -43 8 -65 11 -22 3 -69 9 -105 14 -96 13 -401 4 -505 -15 -208
-38 -351 -88 -601 -211 -161 -79 -296 -138 -339 -149 -5 -1 -19 -5 -30 -9 -47
-18 -76 -26 -174 -51 -57 -14 -109 -24 -116 -21 -7 2 -16 1 -21 -4 -9 -8 -47
-14 -174 -27 -122 -13 -493 -4 -520 12 -3 1 -27 6 -54 9 -27 4 -53 9 -57 12
-4 2 -22 7 -41 9 -58 10 -72 13 -100 24 -16 6 -28 8 -28 5 0 -4 -6 -2 -12 4
-7 5 -28 13 -47 17 -34 7 -181 64 -235 91 -16 8 -35 14 -41 14 -7 0 -18 7 -25
15 -7 8 -21 15 -31 15 -11 0 -19 5 -19 12 0 6 -3 8 -7 5 -3 -4 -12 -2 -20 4
-14 13 -83 52 -123 72 -14 6 -27 14 -30 17 -3 3 -39 28 -80 55 -41 28 -80 55
-86 60 -6 6 -26 21 -44 35 -18 14 -42 33 -54 43 -86 74 -144 128 -231 213 -55
55 -124 112 -152 127 -69 37 -152 43 -208 16z"/>
</g>
</svg>
